$MeshFormat
4.1 0 8
$EndMeshFormat
$Entities
5 4 1 0
1 50 0 0 0 
2 0 50 0 0 
3 -50 0 0 0 
4 0 -50 0 0 
5 0 0 0 0 
1 3.552713678800501e-15 0 0 50 50 0 0 2 1 -2 
2 -50 3.552713678800501e-15 0 0 50 0 1 8 2 2 -3 
3 -50 -50 0 -3.552713678800501e-15 0 0 0 2 3 -4 
4 0 -50 0 50 -3.552713678800501e-15 0 1 9 2 4 -1 
6 -50 -50 0 50 50 0 1 7 4 1 2 3 4 
$EndEntities
$Nodes
9 54 1 54
0 1 0 1
1
50 0 0
0 2 0 1
2
0 50 0
0 3 0 1
3
-50 0 0
0 4 0 1
4
0 -50 0
1 1 0 4
5
6
7
8
47.55282580245367 15.45084975661521 0
40.45084966655442 29.38926268646109 0
29.38926253703297 40.4508497751203 0
15.45084966977272 47.55282583067051 0
1 2 0 4
9
10
11
12
-15.45084975661521 47.55282580245367 0
-29.38926268646109 40.45084966655442 0
-40.4508497751203 29.38926253703297 0
-47.55282583067051 15.45084966977272 0
1 3 0 4
13
14
15
16
-47.55282580245367 -15.45084975661521 0
-40.45084966655442 -29.38926268646109 0
-29.38926253703297 -40.4508497751203 0
-15.45084966977272 -47.55282583067051 0
1 4 0 4
17
18
19
20
15.45084975661521 -47.55282580245367 0
29.38926268646109 -40.45084966655442 0
40.4508497751203 -29.38926253703297 0
47.55282583067051 -15.45084966977272 0
2 6 0 34
21
22
23
24
25
26
27
28
29
30
31
32
33
34
35
36
37
38
39
40
41
42
43
44
45
46
47
48
49
50
51
52
53
54
36.13995882182311 4.904597229255061 0
-35.39558454051294 -5.60610986185581 0
5.60610986185581 -35.39558454051294 0
-5.289155403278437 32.90110261377666 0
25.87506228983516 -25.38620585631893 0
-25.34044069242251 -25.34044078603178 0
-25.93030176562707 26.16151944613708 0
25.34044069242251 25.34044078603178 0
-6.214420616644897 -39.23630771193736 0
-7.015012817315167 -25.52125954359568 0
12.04321424868144 -20.8095742271213 0
-0.3751471639431122 -9.621040494456661 0
12.45944079431899 -4.876078020904878 0
3.742389162020747 5.691024906928736 0
-10.38947645112443 2.135161373728081 0
-6.229946752749335 16.48331080331777 0
9.350654468458368 22.78784267919415 0
-19.68408250180371 -11.66576265817682 0
21.35413954301415 9.013362263376651 0
7.860162303574817 37.63350073050524 0
-19.05589616774422 14.03584007346746 0
-32.77871250328776 15.01641957000358 0
-25.05461316458802 1.746540055094017 0
17.67289976868975 -33.91900801859225 0
35.62791920152024 -17.67454482095636 0
-33.68475664074946 -17.49048514982815 0
-18.04806673558125 34.89028059121107 0
-16.68199726663766 -35.62033672947113 0
34.16764290525357 16.81970254434796 0
39.26340395581963 -7.062697344114673 0
26.80543116369885 -8.802869683190362 0
-39.37589403476302 4.886012276678095 0
-14.91067336499606 24.894410705582 0
18.60979500298819 34.83765060613975 0
$EndNodes
$Elements
3 96 1 96
1 2 1 5
1 2 9 
2 9 10 
3 10 11 
4 11 12 
5 12 3 
1 4 1 5
6 4 17 
7 17 18 
8 18 19 
9 19 20 
10 20 1 
2 6 2 86
11 38 22 46 
12 24 36 37 
13 22 38 43 
14 26 30 38 
15 30 26 48 
16 31 25 51 
17 26 38 46 
18 21 39 51 
19 24 37 40 
20 33 31 51 
21 39 33 51 
22 28 37 39 
23 28 39 49 
24 37 28 54 
25 39 21 49 
26 36 24 53 
27 8 2 40 
28 2 24 40 
29 40 37 54 
30 30 32 38 
31 34 33 39 
32 4 17 23 
33 3 13 22 
34 14 15 26 
35 18 19 25 
36 2 9 24 
37 1 5 21 
38 10 11 27 
39 6 7 28 
40 37 34 39 
41 36 34 37 
42 32 35 38 
43 35 34 36 
44 32 34 35 
45 32 33 34 
46 32 31 33 
47 30 31 32 
48 11 12 42 
49 27 11 42 
50 29 30 48 
51 43 42 52 
52 30 23 31 
53 25 31 44 
54 31 23 44 
55 41 42 43 
56 38 35 43 
57 35 36 41 
58 25 45 51 
59 50 21 51 
60 22 43 52 
61 29 23 30 
62 41 27 42 
63 4 23 29 
64 17 18 44 
65 13 14 46 
66 25 19 45 
67 9 10 47 
68 26 15 48 
69 5 6 49 
70 16 4 29 
71 23 17 44 
72 15 16 48 
73 18 25 44 
74 1 21 50 
75 19 20 45 
76 14 26 46 
77 22 13 46 
78 20 1 50 
79 10 27 47 
80 6 28 49 
81 24 9 47 
82 21 5 49 
83 7 8 54 
84 12 3 52 
85 3 22 52 
86 28 7 54 
87 35 41 43 
88 8 40 54 
89 27 41 53 
90 41 36 53 
91 42 12 52 
92 24 47 53 
93 45 50 51 
94 16 29 48 
95 45 20 50 
96 47 27 53 
$EndElements
