$MeshFormat
4.1 0 8
$EndMeshFormat
$Entities
5 4 1 0
1 50 0 0 0 
2 0 50 0 0 
3 -50 0 0 0 
4 0 -50 0 0 
5 0 0 0 0 
1 3.552713678800501e-15 0 0 50 50 0 0 2 1 -2 
2 -50 3.552713678800501e-15 0 0 50 0 1 8 2 2 -3 
3 -50 -50 0 -3.552713678800501e-15 0 0 0 2 3 -4 
4 0 -50 0 50 -3.552713678800501e-15 0 1 9 2 4 -1 
6 -50 -50 0 50 50 0 1 7 4 1 2 3 4 
$EndEntities
$Nodes
9 74 1 74
0 1 0 1
1
50 0 0
0 2 0 1
2
0 50 0
0 3 0 1
3
-50 0 0
0 4 0 1
4
0 -50 0
1 1 0 5
5
6
7
8
9
48.29629130613215 12.94095228618144 0
43.30127015335815 25.00000006211788 0
35.35533897501897 35.35533914363579 0
24.99999992583343 43.30127023204202 0
12.94095221296572 48.29629132575024 0
1 2 0 5
10
11
12
13
14
-12.94095228618144 48.29629130613215 0
-25.00000006211788 43.30127015335815 0
-35.35533914363579 35.35533897501897 0
-43.30127023204202 24.99999992583343 0
-48.29629132575024 12.94095221296572 0
1 3 0 5
15
16
17
18
19
-48.29629130613215 -12.94095228618144 0
-43.30127015335815 -25.00000006211788 0
-35.35533897501897 -35.35533914363579 0
-24.99999992583343 -43.30127023204202 0
-12.94095221296572 -48.29629132575024 0
1 4 0 5
20
21
22
23
24
12.94095228618144 -48.29629130613215 0
25.00000006211788 -43.30127015335815 0
35.35533914363579 -35.35533897501897 0
43.30127023204202 -24.99999992583343 0
48.29629132575024 -12.94095221296572 0
2 6 0 50
25
26
27
28
29
30
31
32
33
34
35
36
37
38
39
40
41
42
43
44
45
46
47
48
49
50
51
52
53
54
55
56
57
58
59
60
61
62
63
64
65
66
67
68
69
70
71
72
73
74
35.79866853374077 -14.54579256147192 0
-36.62455146756808 14.72931450275167 0
14.64466091008102 35.35533911476047 0
-15.01082579561421 -35.52620961057893 0
-14.64466096462671 35.35533901327921 0
-34.92628489552127 -14.0341187018922 0
14.64466096462671 -35.35533901327921 0
35.35533901327921 14.64466096462671 0
-25.00000004900535 32.58063425607529 0
-16.43999667852026 23.65228049807908 0
-4.983206375693765 26.81972885937121 0
-7.144002683931255 14.45448091817257 0
4.80243308027244 18.17472777411902 0
2.583953217179047 5.732597575871694 0
-9.723112610624611 1.606122049915947 0
0.09059661275733817 -7.018506149587467 0
12.44895412250708 -2.820341394245141 0
-11.94242988541589 -11.11551430526262 0
-2.517410574002967 -18.90386808013237 0
-23.09723295227496 -3.06934795513614 0
-18.84337131792753 10.92126143892662 0
14.45648340997687 9.987190156592323 0
25.46295357102805 3.089027043065764 0
22.63867544917921 -11.5740650034486 0
9.844050487627372 -15.1413111067932 0
16.73784188530508 23.86593031296745 0
18.22807119331935 -24.49365157681791 0
-14.05723382919423 -23.10953987922656 0
-23.67678060884381 -16.42125779326783 0
-37.2198880278766 -2.089651189516695 0
-24.52330290423403 -29.59901392315944 0
-3.403083971654699 38.43098500211021 0
6.198578140859889 -26.96666179844354 0
3.556718795408455 -38.52584858611991 0
29.98728768382225 -24.01142583474293 0
-28.44274133606469 21.70237477592003 0
24.15901534414785 15.45167261599933 0
38.30217138353145 2.790440562942123 0
29.82008457153885 24.69770206155494 0
5.760834100609071 29.94087342423589 0
-5.062552783930828 -30.3689579931845 0
24.63125173565068 -32.67377706927866 0
-29.50841847979634 7.133574938938537 0
6.146207242494922 40.61826227306692 0
-6.079666726860664 -40.63741114897346 0
31.86327263932803 -5.575837584725249 0
40.91344931748117 -6.24254935474829 0
24.16470368844609 33.1780515674364 0
-33.18094299319328 -23.98326231112854 0
-40.63923503462063 6.878390617544852 0
$EndNodes
$Elements
3 134 1 134
1 2 1 6
1 2 10 
2 10 11 
3 11 12 
4 12 13 
5 13 14 
6 14 3 
1 4 1 6
7 4 20 
8 20 21 
9 21 22 
10 22 23 
11 23 24 
12 24 1 
2 6 2 122
13 30 44 54 
14 44 30 53 
15 3 15 54 
16 15 30 54 
17 12 13 60 
18 32 47 62 
19 47 32 61 
20 18 28 55 
21 25 48 59 
22 48 51 59 
23 13 26 60 
24 17 18 55 
25 1 5 62 
26 5 32 62 
27 45 60 67 
28 32 6 63 
29 60 26 67 
30 33 12 60 
31 6 7 63 
32 4 20 58 
33 20 31 58 
34 44 39 45 
35 39 36 45 
36 40 43 49 
37 46 41 47 
38 41 40 49 
39 38 41 46 
40 47 41 48 
41 48 41 49 
42 10 11 29 
43 15 16 30 
44 20 21 31 
45 5 6 32 
46 8 9 27 
47 13 14 26 
48 18 19 28 
49 23 24 25 
50 40 42 43 
51 42 39 44 
52 40 39 42 
53 38 40 41 
54 38 39 40 
55 38 36 39 
56 37 38 46 
57 37 36 38 
58 35 36 37 
59 36 34 45 
60 35 34 36 
61 37 46 50 
62 45 34 60 
63 29 34 35 
64 2 10 56 
65 10 29 56 
66 48 49 51 
67 42 44 53 
68 28 52 55 
69 46 47 61 
70 58 57 65 
71 51 49 57 
72 31 51 57 
73 43 42 52 
74 50 27 64 
75 37 50 64 
76 54 44 67 
77 22 23 59 
78 23 25 59 
79 52 53 55 
80 3 54 74 
81 29 35 56 
82 49 43 57 
83 56 35 64 
84 27 50 72 
85 55 53 73 
86 52 42 53 
87 29 33 34 
88 53 30 73 
89 31 57 58 
90 56 64 68 
91 61 32 63 
92 57 43 65 
93 44 45 67 
94 48 25 70 
95 11 12 33 
96 29 11 33 
97 35 37 64 
98 21 22 66 
99 50 46 61 
100 9 2 68 
101 50 63 72 
102 19 4 69 
103 7 8 72 
104 14 3 74 
105 16 17 73 
106 24 1 71 
107 47 48 70 
108 31 21 66 
109 34 33 60 
110 27 9 68 
111 50 61 63 
112 28 19 69 
113 1 62 71 
114 25 24 71 
115 51 31 66 
116 8 27 72 
117 30 16 73 
118 26 14 74 
119 17 55 73 
120 58 65 69 
121 4 58 69 
122 62 47 70 
123 52 28 65 
124 43 52 65 
125 2 56 68 
126 63 7 72 
127 22 59 66 
128 64 27 68 
129 59 51 66 
130 67 26 74 
131 54 67 74 
132 65 28 69 
133 70 25 71 
134 62 70 71 
$EndElements
