$MeshFormat
4.1 0 8
$EndMeshFormat
$Entities
5 4 1 0
1 50 0 0 0 
2 0 50 0 0 
3 -50 0 0 0 
4 0 -50 0 0 
5 0 0 0 0 
1 3.552713678800501e-15 0 0 50 50 0 0 2 1 -2 
2 -50 3.552713678800501e-15 0 0 50 0 1 8 2 2 -3 
3 -50 -50 0 -3.552713678800501e-15 0 0 0 2 3 -4 
4 0 -50 0 50 -3.552713678800501e-15 0 1 9 2 4 -1 
6 -50 -50 0 50 50 0 1 7 4 1 2 3 4 
$EndEntities
$Nodes
9 95 1 95
0 1 0 1
1
50 0 0
0 2 0 1
2
0 50 0
0 3 0 1
3
-50 0 0
0 4 0 1
4
0 -50 0
1 1 0 6
5
6
7
8
9
10
48.74639560301778 11.12604672442504 0
45.04844336849128 21.694187011175 0
39.09157406344415 31.1744901681208 0
31.17449001235803 39.09157418766082 0
21.69418688875133 45.04844342744741 0
11.12604666078668 48.74639561754282 0
1 2 0 6
11
12
13
14
15
16
-11.12604672442504 48.74639560301778 0
-21.694187011175 45.04844336849128 0
-31.1744901681208 39.09157406344415 0
-39.09157418766082 31.17449001235803 0
-45.04844342744741 21.69418688875133 0
-48.74639561754282 11.12604666078668 0
1 3 0 6
17
18
19
20
21
22
-48.74639560301778 -11.12604672442504 0
-45.04844336849128 -21.694187011175 0
-39.09157406344415 -31.1744901681208 0
-31.17449001235803 -39.09157418766082 0
-21.69418688875133 -45.04844342744741 0
-11.12604666078668 -48.74639561754282 0
1 4 0 6
23
24
25
26
27
28
11.12604672442504 -48.74639560301778 0
21.694187011175 -45.04844336849128 0
31.1744901681208 -39.09157406344415 0
39.09157418766082 -31.17449001235803 0
45.04844342744741 -21.69418688875133 0
48.74639561754282 -11.12604666078668 0
2 6 0 67
29
30
31
32
33
34
35
36
37
38
39
40
41
42
43
44
45
46
47
48
49
50
51
52
53
54
55
56
57
58
59
60
61
62
63
64
65
66
67
68
69
70
71
72
73
74
75
76
77
78
79
80
81
82
83
84
85
86
87
88
89
90
91
92
93
94
95
36.74297652624201 -12.06561053561916 0
-38.532934597803 12.98971942746247 0
14.00588193209408 38.27907624176949 0
-12.3689779350088 -37.83681318337646 0
-21.27553845099989 33.85982535689362 0
34.09657167648233 22.13494506631167 0
-34.11598347339633 -21.61328472439197 0
21.27553845099989 -33.85982535689362 0
-39.45363576534191 -4.510501036674452 0
-4.720460563124821 39.82165186113514 0
3.975205718262501 -40.140078945997 0
40.05651207797573 4.142424763881523 0
-29.37927671057204 29.648660199167 0
-21.03947811684208 23.50421327809797 0
-10.75161536083198 29.78408166219609 0
-11.58359803829825 17.56436862328806 0
-1.992878210372222 22.69413514216494 0
-2.148022975833368 11.55129295803948 0
-11.93234850395024 6.128122158580636 0
-2.367740236223598 0.3108699982309592 0
7.42527003689279 5.747584084786554 0
7.230008926517682 -5.454572117721818 0
-2.56154276495175 -10.8875169794816 0
17.02039642397324 -0.02318386861545907 0
16.82799985194396 -11.22001617459156 0
17.07070226059302 10.93814622586474 0
26.30051380015892 -6.093060126901365 0
26.20313801032077 -16.73346767903735 0
17.39171625863255 -22.07307053470672 0
-21.18868929774747 12.36738535541835 0
-21.5649349498696 0.6716253105065026 0
7.58448873535953 16.8920334511889 0
16.70970945042511 20.759370903497 0
-12.12201704950751 -5.109216024969631 0
-12.29995391021427 -16.24071405014195 0
-2.75843397998099 -21.88296376585315 0
-21.3593713198741 -10.12152209813759 0
-23.04198196334218 -21.39869507992588 0
7.162585217660064 -16.56082102896934 0
8.235162073205727 -29.5531457285339 0
28.61688766511705 5.198977881308722 0
8.117492572748004 28.9154851302751 0
-12.47934965181124 -26.93998443651479 0
-3.35274867514131 -33.04083617741015 0
-31.3913720164477 6.047764607843337 0
-21.4584114101767 -32.51003092709816 0
-31.22111542903813 19.85719818347549 0
-28.77439348180484 -4.277831463295313 0
26.35862016546941 15.40879690321055 0
34.64935091629804 -21.55882156719889 0
30.42078033170095 30.2361932572145 0
-39.64871482141365 -14.11594579299693 0
-13.91356962211135 39.45207957034678 0
37.15390509275893 13.28422972505209 0
13.26122799561363 -39.46957780058672 0
23.16508536730518 34.35481999214315 0
-41.62486759942709 5.130605931883607 0
4.662976700794562 39.56163544691564 0
41.87051644437166 -4.423285214523201 0
-4.574513510534858 -41.95282478486529 0
-30.04769624817281 -29.62231331242703 0
28.29763466533881 -27.41520820227312 0
-0.5511003977365614 31.60720383077131 0
-31.06568013752883 -12.67296336590369 0
34.50518562506639 -2.369515426796443 0
17.46814647623753 29.08827552371189 0
24.8858410486068 24.70246458192714 0
$EndNodes
$Elements
3 174 1 174
1 2 1 7
1 2 11 
2 11 12 
3 12 13 
4 13 14 
5 14 15 
6 15 16 
7 16 3 
1 4 1 7
8 4 23 
9 23 24 
10 24 25 
11 25 26 
12 26 27 
13 27 28 
14 28 1 
2 6 2 160
15 36 68 83 
16 36 57 68 
17 77 69 82 
18 14 15 75 
19 69 40 82 
20 25 26 90 
21 15 30 75 
22 37 73 85 
23 73 37 76 
24 20 21 74 
25 29 55 56 
26 70 86 91 
27 70 31 86 
28 73 58 75 
29 68 39 83 
30 41 14 75 
31 36 25 90 
32 26 78 90 
33 21 32 74 
34 30 73 75 
35 34 77 82 
36 43 38 81 
37 55 29 93 
38 38 43 91 
39 37 80 92 
40 76 37 92 
41 39 68 72 
42 84 94 95 
43 40 69 93 
44 58 42 75 
45 44 42 58 
46 49 54 60 
47 60 54 61 
48 46 49 60 
49 62 59 65 
50 51 48 62 
51 51 62 63 
52 48 47 62 
53 53 50 67 
54 57 67 68 
55 51 63 64 
56 63 62 65 
57 57 53 67 
58 50 51 67 
59 63 65 66 
60 51 64 67 
61 67 64 68 
62 52 55 69 
63 3 17 37 
64 2 11 38 
65 4 23 39 
66 1 5 40 
67 12 13 33 
68 18 19 35 
69 6 7 34 
70 24 25 36 
71 15 16 30 
72 9 10 31 
73 21 22 32 
74 27 28 29 
75 56 53 57 
76 55 53 56 
77 52 53 55 
78 54 52 69 
79 49 52 54 
80 52 50 53 
81 50 48 51 
82 49 50 52 
83 47 59 62 
84 49 48 50 
85 47 58 59 
86 46 48 49 
87 47 44 58 
88 46 47 48 
89 45 46 60 
90 46 44 47 
91 45 44 46 
92 43 44 45 
93 60 61 70 
94 79 84 95 
95 45 60 70 
96 43 42 44 
97 63 66 71 
98 68 64 72 
99 33 42 43 
100 20 74 89 
101 57 36 90 
102 64 63 71 
103 35 66 92 
104 61 54 77 
105 66 35 89 
106 71 32 72 
107 33 43 81 
108 43 45 91 
109 29 56 78 
110 66 65 92 
111 73 30 85 
112 64 71 72 
113 59 58 73 
114 26 27 78 
115 27 29 78 
116 29 87 93 
117 59 73 76 
118 71 66 74 
119 33 41 42 
120 65 59 76 
121 54 69 77 
122 56 57 90 
123 32 71 74 
124 86 38 91 
125 74 66 89 
126 42 41 75 
127 7 8 79 
128 13 14 41 
129 34 7 79 
130 33 13 41 
131 3 37 85 
132 2 38 86 
133 1 40 87 
134 12 33 81 
135 18 35 80 
136 6 34 82 
137 24 36 83 
138 17 18 80 
139 11 12 81 
140 5 6 82 
141 23 24 83 
142 37 17 80 
143 38 11 81 
144 40 5 82 
145 39 23 83 
146 8 9 84 
147 9 31 84 
148 30 16 85 
149 16 3 85 
150 31 10 86 
151 10 2 86 
152 29 28 87 
153 28 1 87 
154 4 39 88 
155 32 22 88 
156 22 4 88 
157 72 32 88 
158 19 20 89 
159 69 55 93 
160 35 19 89 
161 94 61 95 
162 45 70 91 
163 39 72 88 
164 61 77 95 
165 70 61 94 
166 31 70 94 
167 79 8 84 
168 78 56 90 
169 80 35 92 
170 65 76 92 
171 77 34 95 
172 87 40 93 
173 34 79 95 
174 84 31 94 
$EndElements
