$MeshFormat
4.1 0 8
$EndMeshFormat
$Entities
5 4 1 0
1 50 0 0 0 
2 0 50 0 0 
3 -50 0 0 0 
4 0 -50 0 0 
5 0 0 0 0 
1 3.552713678800501e-15 0 0 50 50 0 0 2 1 -2 
2 -50 3.552713678800501e-15 0 0 50 0 1 8 2 2 -3 
3 -50 -50 0 -3.552713678800501e-15 0 0 0 2 3 -4 
4 0 -50 0 50 -3.552713678800501e-15 0 1 9 2 4 -1 
6 -50 -50 0 50 50 0 1 7 4 1 2 3 4 
$EndEntities
$Nodes
9 123 1 123
0 1 0 1
1
50 0 0
0 2 0 1
2
0 50 0
0 3 0 1
3
-50 0 0
0 4 0 1
4
0 -50 0
1 1 0 7
5
6
7
8
9
10
11
49.0392640155934 9.754516123771898 0
46.19397660518391 19.1341716674572 0
41.57348056855839 27.77851172067536 0
35.35533897501899 35.35533914363577 0
27.77851157383572 41.5734806666735 0
19.13417155869061 46.19397665023651 0
9.754516069174237 49.03926402645355 0
1 2 0 7
12
13
14
15
16
17
18
-9.754516123771898 49.0392640155934 0
-19.1341716674572 46.19397660518391 0
-27.77851172067536 41.57348056855839 0
-35.35533914363577 35.35533897501899 0
-41.5734806666735 27.77851157383572 0
-46.19397665023651 19.13417155869061 0
-49.03926402645355 9.754516069174237 0
1 3 0 7
19
20
21
22
23
24
25
-49.0392640155934 -9.754516123771898 0
-46.19397660518391 -19.1341716674572 0
-41.57348056855839 -27.77851172067536 0
-35.35533897501899 -35.35533914363577 0
-27.77851157383572 -41.5734806666735 0
-19.13417155869061 -46.19397665023651 0
-9.754516069174237 -49.03926402645355 0
1 4 0 7
26
27
28
29
30
31
32
9.754516123771898 -49.0392640155934 0
19.1341716674572 -46.19397660518391 0
27.77851172067536 -41.57348056855839 0
35.35533914363577 -35.35533897501899 0
41.5734806666735 -27.77851157383572 0
46.19397665023651 -19.13417155869061 0
49.03926402645355 -9.754516069174237 0
2 6 0 91
33
34
35
36
37
38
39
40
41
42
43
44
45
46
47
48
49
50
51
52
53
54
55
56
57
58
59
60
61
62
63
64
65
66
67
68
69
70
71
72
73
74
75
76
77
78
79
80
81
82
83
84
85
86
87
88
89
90
91
92
93
94
95
96
97
98
99
100
101
102
103
104
105
106
107
108
109
110
111
112
113
114
115
116
117
118
119
120
121
122
123
19.23681638738875 35.83419591739127 0
-19.45373407631781 -36.38887626342798 0
-36.57517968825704 19.42308594489934 0
36.39751060787506 -19.45487466720796 0
12.54759090794507 -40.02399733525833 0
-38.71835375154348 -11.45510209394655 0
40.23490391537333 11.30664434579054 0
-11.9802527179357 39.49360033345948 0
-4.495453113085672 -41.90908634261676 0
-40.3585930386457 4.228252692039511 0
42.15876435145076 -4.068794675066862 0
3.774311192567287 41.74051887218642 0
-32.51669004536391 -27.2093060406275 0
-25.35968483137763 31.3119163065122 0
24.85384455685528 -30.1984822808276 0
31.90268476563319 26.18185686605629 0
-37.7110127106388 -20.39769493468353 0
-29.09092359158936 -17.9773944394025 0
-29.8433677040602 -6.879619360310491 0
-21.12958609500629 -10.93201279055372 0
-22.44073786373668 -1.056624110248881 0
-13.45222791631016 -4.799203793493864 0
-14.77361710413934 4.917671343118092 0
-5.735702295670823 1.180592476541201 0
-4.424606846239829 -8.509934603204128 0
3.324157599246034 -2.549519334330077 0
2.023904595942351 7.16241205823906 0
11.08553679760096 3.428522634299199 0
4.620173252221076 -12.2657373445034 0
9.787296045677916 13.14337669173049 0
0.7246676638510251 16.87722940307797 0
-3.100831042567233 -18.21666550090043 0
18.84966151477852 9.409351854523145 0
20.14701050730127 -0.3062775800548758 0
5.886719895550456 -21.93106028666615 0
13.67560130364144 -15.99360488543422 0
8.429347227492645 22.71322242419895 0
-0.6720159386810856 26.27641000747971 0
-8.338524313197741 20.61096811259295 0
-19.38063373441365 -20.6182433391248 0
-23.70638632590897 8.521764985687881 0
-1.645472265815055 -27.38318575665948 0
27.59242569055176 5.632550603709277 0
14.85269777820454 -25.36754314294531 0
22.40098001758973 -19.30688063332874 0
28.49895752720715 -4.031426532505834 0
27.11421582838138 16.66339765681639 0
17.29283080539923 19.13636397044063 0
12.38286096413776 -6.284705472381164 0
21.18024370175947 -9.831485884682312 0
-7.033051455292894 10.89639633186997 0
-16.06683313639915 14.60855254017392 0
-26.36497886072424 19.5703591814094 0
-17.21604160851834 24.88186487015633 0
-31.22358146334827 2.549297834293395 0
-12.03414172796558 -14.54706532075554 0
-9.699436595927654 29.90168846114833 0
-10.24847579158875 -23.97705060959917 0
7.325406985014145 -32.2056049040762 0
8.115784055723269 32.9735399208706 0
-9.326259332816329 -33.49448501556607 0
15.3449430504004 27.1002385252903 0
30.61310875939704 -13.47998563846146 0
-32.94821959141328 11.25136112238875 0
-24.07243289365822 -27.67478609050774 0
-2.343544763846635 35.13349412732329 0
-17.22264209174611 32.98924591047958 0
20.23239432066164 -37.85214730432131 0
36.57002916243663 18.71395721972235 0
4.26627296970371 -41.37813354392754 0
-42.71342629342608 -4.206905307930877 0
43.28435137224729 3.733684658946103 0
-33.04573263813364 26.68784239633513 0
33.17768468039937 -27.22822204803084 0
27.58465769557494 32.75774859746138 0
-41.05923727510242 12.53693903384105 0
40.65347733696717 -12.41168469022013 0
12.00311985270883 41.15629907742767 0
23.07935808879631 26.27896692224271 0
-12.43282683001693 -41.40513765966017 0
-4.240097824637999 43.05043557033807 0
35.61563058037657 2.244235931156271 0
-16.33413759795194 -28.78161518732061 0
-0.4206215611207959 -35.22174184212675 0
-28.00440600431439 -34.05133507938031 0
15.32773580606121 -33.0021984109424 0
35.40259062629013 -6.844570213390483 0
-20.64552402584765 38.80009496140305 0
32.92363152819081 11.06252641352846 0
29.52130358925717 -21.72235417029741 0
-36.08788875156358 -2.800765420691218 0
$EndNodes
$Elements
3 228 1 228
1 2 1 8
1 2 12 
2 12 13 
3 13 14 
4 14 15 
5 15 16 
6 16 17 
7 17 18 
8 18 3 
1 4 1 8
9 4 26 
10 26 27 
11 27 28 
12 28 29 
13 29 30 
14 30 31 
15 31 32 
16 32 1 
2 6 2 212
17 46 85 86 
18 76 47 77 
19 85 46 105 
20 92 33 110 
21 33 92 94 
22 48 79 101 
23 47 76 118 
24 77 47 122 
25 38 50 51 
26 72 50 97 
27 50 45 97 
28 35 85 105 
29 107 33 111 
30 33 94 111 
31 101 79 121 
32 79 48 111 
33 38 49 50 
34 42 87 96 
35 37 91 102 
36 85 35 96 
37 46 86 99 
38 102 91 116 
39 51 50 52 
40 42 96 108 
41 52 50 72 
42 51 52 53 
43 114 39 121 
44 53 52 54 
45 95 36 109 
46 53 54 55 
47 53 55 73 
48 55 54 56 
49 56 54 57 
50 56 57 58 
51 56 58 59 
52 58 57 61 
53 61 57 64 
54 59 58 60 
55 59 60 62 
56 61 64 67 
57 67 64 74 
58 59 62 63 
59 61 67 68 
60 62 60 65 
61 63 62 69 
62 65 60 66 
63 68 67 76 
64 68 76 77 
65 21 22 45 
66 28 29 47 
67 14 15 46 
68 7 8 48 
69 65 66 75 
70 63 69 70 
71 26 27 37 
72 19 20 38 
73 5 6 39 
74 12 13 40 
75 75 66 78 
76 65 75 79 
77 63 70 71 
78 23 24 34 
79 16 17 35 
80 30 31 36 
81 9 10 33 
82 25 4 41 
83 18 3 42 
84 32 1 43 
85 11 2 44 
86 62 65 80 
87 69 62 80 
88 65 79 80 
89 55 56 83 
90 58 61 81 
91 60 58 81 
92 61 68 81 
93 66 60 81 
94 81 68 82 
95 66 81 82 
96 68 77 82 
97 78 66 82 
98 63 71 83 
99 56 59 83 
100 59 63 83 
101 73 55 84 
102 73 84 85 
103 55 83 84 
104 83 71 84 
105 64 88 90 
106 85 84 86 
107 84 71 86 
108 104 39 114 
109 52 72 88 
110 100 47 118 
111 95 109 119 
112 64 57 88 
113 54 52 88 
114 47 106 122 
115 51 53 87 
116 88 72 90 
117 86 71 89 
118 40 89 98 
119 53 73 87 
120 57 54 88 
121 76 67 91 
122 71 70 89 
123 74 64 90 
124 67 74 91 
125 82 77 95 
126 73 85 96 
127 70 69 92 
128 44 92 110 
129 92 69 94 
130 74 90 93 
131 80 79 111 
132 38 51 123 
133 92 44 98 
134 70 92 98 
135 40 98 113 
136 69 80 94 
137 78 82 95 
138 93 34 112 
139 87 73 96 
140 39 101 121 
141 90 72 115 
142 49 45 50 
143 93 41 116 
144 74 93 116 
145 86 89 99 
146 34 93 115 
147 89 70 98 
148 89 40 99 
149 47 29 106 
150 46 15 105 
151 48 8 107 
152 4 26 102 
153 3 19 103 
154 1 5 104 
155 26 37 102 
156 38 20 49 
157 37 27 100 
158 19 38 103 
159 5 39 104 
160 39 6 101 
161 15 16 105 
162 29 30 106 
163 8 9 107 
164 16 35 105 
165 30 36 106 
166 9 33 107 
167 21 45 49 
168 20 21 49 
169 28 47 100 
170 27 28 100 
171 6 7 101 
172 7 48 101 
173 35 17 108 
174 36 31 109 
175 17 18 108 
176 31 32 109 
177 10 11 110 
178 33 10 110 
179 41 4 102 
180 42 3 103 
181 43 1 104 
182 18 42 108 
183 32 43 109 
184 11 44 110 
185 34 24 112 
186 25 41 112 
187 12 40 113 
188 44 2 113 
189 24 25 112 
190 72 97 115 
191 45 22 117 
192 23 34 117 
193 40 13 120 
194 14 46 120 
195 2 12 113 
196 75 78 114 
197 103 38 123 
198 41 93 112 
199 96 35 108 
200 75 114 121 
201 43 114 119 
202 76 91 118 
203 95 77 122 
204 48 107 111 
205 94 80 111 
206 114 78 119 
207 87 42 123 
208 22 23 117 
209 13 14 120 
210 79 75 121 
211 98 44 113 
212 91 37 118 
213 97 45 117 
214 34 97 117 
215 51 87 123 
216 91 74 116 
217 46 99 120 
218 99 40 120 
219 93 90 115 
220 43 104 114 
221 36 95 122 
222 41 102 116 
223 97 34 115 
224 42 103 123 
225 78 95 119 
226 109 43 119 
227 37 100 118 
228 106 36 122 
$EndElements
