$MeshFormat
4.1 0 8
$EndMeshFormat
$Entities
5 4 1 0
1 50 0 0 0 
2 0 50 0 0 
3 -50 0 0 0 
4 0 -50 0 0 
5 0 0 0 0 
1 3.552713678800501e-15 0 0 50 50 0 0 2 1 -2 
2 -50 3.552713678800501e-15 0 0 50 0 1 8 2 2 -3 
3 -50 -50 0 -3.552713678800501e-15 0 0 0 2 3 -4 
4 0 -50 0 50 -3.552713678800501e-15 0 1 9 2 4 -1 
6 -50 -50 0 50 50 0 1 7 4 1 2 3 4 
$EndEntities
$Nodes
9 54 1 54
0 1 0 1
1
50 0 0
0 2 0 1
2
0 50 0
0 3 0 1
3
-50 0 0
0 4 0 1
4
0 -50 0
1 1 0 4
5
6
7
8
47.55282580245368 15.4508497566152 0
40.45084966655443 29.38926268646107 0
29.38926253703299 40.45084977512028 0
15.45084966977274 47.5528258306705 0
1 2 0 4
9
10
11
12
-15.4508497566152 47.55282580245368 0
-29.38926268646107 40.45084966655443 0
-40.45084977512028 29.38926253703299 0
-47.5528258306705 15.45084966977274 0
1 3 0 4
13
14
15
16
-47.55282580245368 -15.4508497566152 0
-40.45084966655443 -29.38926268646107 0
-29.38926253703299 -40.45084977512028 0
-15.45084966977274 -47.5528258306705 0
1 4 0 4
17
18
19
20
15.4508497566152 -47.55282580245368 0
29.38926268646107 -40.45084966655443 0
40.45084977512028 -29.38926253703299 0
47.5528258306705 -15.45084966977274 0
2 6 0 34
21
22
23
24
25
26
27
28
29
30
31
32
33
34
35
36
37
38
39
40
41
42
43
44
45
46
47
48
49
50
51
52
53
54
32.74553658641548 -16.86817964463728 0
-32.45341564504706 16.1478825450814 0
16.26956442360276 31.93081817411107 0
-16.26956442360276 -31.93081817411107 0
-16.26956448068684 31.93081806826616 0
31.93081806826616 16.26956448068684 0
-32.85553940949093 -15.83241061789759 0
15.19728558013704 -29.65636911806308 0
-6.214420650341478 39.23630769281006 0
-1.214829259973419 26.4399183483904 0
-17.88428946879629 16.06952329247815 0
-2.616278851092705 9.26608008561845 0
-13.35642330430453 0.7872468312320062 0
-1.800600160035956 -6.568948171760583 0
10.54078044061121 1.179865646315563 0
11.018654642831 -13.75140072264695 0
-1.851170190696177 -24.56203741420687 0
15.11575601688225 17.17751561162977 0
-17.52371143101048 -15.17100893514079 0
4.153932712907249 -38.22050982880258 0
22.46054734867687 -7.460281415586704 0
35.8147369609331 -4.152284486304582 0
24.36806366157047 6.081242956426879 0
-39.50855370751352 -5.356811581913734 0
-27.28947641122231 26.79766722188263 0
26.63125014246772 27.04360214560181 0
-27.29778549353832 -26.55487003774616 0
27.94642114140386 -27.60546937237729 0
-39.36574243128662 5.862366492135438 0
-28.12238573580449 0.1305074989312439 0
4.858232836612121 39.0319740091964 0
38.95856142050778 7.520946604436818 0
21.87368905989285 -19.06834005466226 0
-6.93354073086322 -38.88331754412037 0
$EndNodes
$Elements
3 96 1 96
1 2 1 5
1 2 9 
2 9 10 
3 10 11 
4 11 12 
5 12 3 
1 4 1 5
6 4 17 
7 17 18 
8 18 19 
9 19 20 
10 20 1 
2 6 2 86
11 38 26 46 
12 28 36 37 
13 26 38 43 
14 23 30 38 
15 30 23 51 
16 31 22 50 
17 23 38 46 
18 27 39 50 
19 28 37 40 
20 33 31 50 
21 39 33 50 
22 24 37 39 
23 24 39 47 
24 37 24 54 
25 39 27 47 
26 36 28 53 
27 4 17 40 
28 17 28 40 
29 40 37 54 
30 30 32 38 
31 34 33 39 
32 9 10 25 
33 13 14 27 
34 5 6 26 
35 17 18 28 
36 11 12 22 
37 7 8 23 
38 15 16 24 
39 19 20 21 
40 37 34 39 
41 36 34 37 
42 32 35 38 
43 35 34 36 
44 32 34 35 
45 32 33 34 
46 32 31 33 
47 30 31 32 
48 20 1 42 
49 21 20 42 
50 29 30 51 
51 43 42 52 
52 30 25 31 
53 22 31 45 
54 31 25 45 
55 41 42 43 
56 38 35 43 
57 35 36 41 
58 44 27 50 
59 22 49 50 
60 26 43 52 
61 29 25 30 
62 41 21 42 
63 2 9 29 
64 3 13 44 
65 25 10 45 
66 9 25 29 
67 13 27 44 
68 27 14 47 
69 26 6 46 
70 28 18 48 
71 10 11 45 
72 6 7 46 
73 14 15 47 
74 18 19 48 
75 22 12 49 
76 23 8 51 
77 12 3 49 
78 8 2 51 
79 11 22 45 
80 7 23 46 
81 15 24 47 
82 19 21 48 
83 16 4 54 
84 1 5 52 
85 5 26 52 
86 24 16 54 
87 35 41 43 
88 4 40 54 
89 21 41 53 
90 41 36 53 
91 42 1 52 
92 28 48 53 
93 49 44 50 
94 3 44 49 
95 2 29 51 
96 48 21 53 
$EndElements
