$MeshFormat
4.1 0 8
$EndMeshFormat
$Entities
5 4 1 0
1 50 0 0 0 
2 0 50 0 0 
3 -50 0 0 0 
4 0 -50 0 0 
5 0 0 0 0 
1 3.552713678800501e-15 0 0 50 50 0 0 2 1 -2 
2 -50 3.552713678800501e-15 0 0 50 0 1 8 2 2 -3 
3 -50 -50 0 -3.552713678800501e-15 0 0 0 2 3 -4 
4 0 -50 0 50 -3.552713678800501e-15 0 1 9 2 4 -1 
6 -50 -50 0 50 50 0 1 7 4 1 2 3 4 
$EndEntities
$Nodes
9 179 1 179
0 1 0 1
1
50 0 0
0 2 0 1
2
0 50 0
0 3 0 1
3
-50 0 0
0 4 0 1
4
0 -50 0
1 1 0 9
5
6
7
8
9
10
11
12
13
49.38441702699716 7.821723269435736 0
47.55282580245368 15.4508497566152 0
44.55032617998084 22.69952504475179 0
40.45084966655443 29.38926268646107 0
35.35533897501899 35.35533914363577 0
29.38926253703299 40.45084977512028 0
22.6995249158095 44.55032624568022 0
15.45084966977274 47.5528258306705 0
7.821723227087602 49.38441703370445 0
1 2 0 9
14
15
16
17
18
19
20
21
22
-7.821723269435736 49.38441702699716 0
-15.4508497566152 47.55282580245368 0
-22.69952504475179 44.55032617998084 0
-29.38926268646107 40.45084966655443 0
-35.35533914363577 35.35533897501899 0
-40.45084977512028 29.38926253703299 0
-44.55032624568022 22.6995249158095 0
-47.5528258306705 15.45084966977274 0
-49.38441703370445 7.821723227087602 0
1 3 0 9
23
24
25
26
27
28
29
30
31
-49.38441702699716 -7.821723269435736 0
-47.55282580245368 -15.4508497566152 0
-44.55032617998084 -22.69952504475179 0
-40.45084966655443 -29.38926268646107 0
-35.35533897501899 -35.35533914363577 0
-29.38926253703299 -40.45084977512028 0
-22.6995249158095 -44.55032624568022 0
-15.45084966977274 -47.5528258306705 0
-7.821723227087602 -49.38441703370445 0
1 4 0 9
32
33
34
35
36
37
38
39
40
7.821723269435736 -49.38441702699716 0
15.4508497566152 -47.55282580245368 0
22.69952504475179 -44.55032617998084 0
29.38926268646107 -40.45084966655443 0
35.35533914363577 -35.35533897501899 0
40.45084977512028 -29.38926253703299 0
44.55032624568022 -22.6995249158095 0
47.5528258306705 -15.45084966977274 0
49.38441703370445 -7.821723227087602 0
2 6 0 139
41
42
43
44
45
46
47
48
49
50
51
52
53
54
55
56
57
58
59
60
61
62
63
64
65
66
67
68
69
70
71
72
73
74
75
76
77
78
79
80
81
82
83
84
85
86
87
88
89
90
91
92
93
94
95
96
97
98
99
100
101
102
103
104
105
106
107
108
109
110
111
112
113
114
115
116
117
118
119
120
121
122
123
124
125
126
127
128
129
130
131
132
133
134
135
136
137
138
139
140
141
142
143
144
145
146
147
148
149
150
151
152
153
154
155
156
157
158
159
160
161
162
163
164
165
166
167
168
169
170
171
172
173
174
175
176
177
178
179
16.71366521306922 38.6090669769645 0
-17.04946471369106 -40.60113808011518 0
39.74664178407598 -16.22857851313078 0
-39.94687323041515 16.19544324199681 0
39.77403904947026 16.47494645341657 0
17.02501469162181 -41.28898873963194 0
-41.37846707037064 -17.17791302241999 0
-17.32714627676837 41.33002620616923 0
27.95945922781106 -32.73632056772593 0
-33.11822741860095 -28.06036319481659 0
33.04428192968713 28.01434204136699 0
-28.60041391798788 33.17509992098393 0
3.377751143412425 -42.91839747924693 0
-43.696963025291 -3.260211428290316 0
42.91839747924693 3.377751143412425 0
-3.672543377576835 44.53619607856323 0
33.63432261212482 -27.75332870565977 0
26.72072368543534 -25.09302541009842 0
20.65213560749148 -30.03223928147708 0
19.488338574533 -22.26967193270459 0
13.20350087660534 -26.96714545423677 0
12.17758327830245 -19.36447570553096 0
18.34514699104242 -14.51569944533762 0
11.05026514621916 -11.63050992138672 0
4.903407476919746 -16.50643406069849 0
3.759963471237525 -8.751404525815566 0
9.906461396346991 -3.875019099406408 0
2.611444744750576 -0.9897971020712675 0
-3.535826586344859 -5.865182995924789 0
-4.68420039970461 1.896237072948996 0
1.46319596862106 6.771461638243681 0
-10.83157744722349 -2.979012501221574 0
-11.97994376313597 4.782398099610182 0
-9.683199767475443 -10.7404378854178 0
-18.12733717817377 -0.09283033717657869 0
-19.27570497056706 7.668582208646557 0
-13.1283075990979 12.54380552711867 0
-20.4240724635371 15.42999437012047 0
-14.27667538241261 20.3052180679207 0
-25.42310136042603 2.793357620285446 0
-24.27473238284168 -4.968056467227846 0
-6.980909359994083 17.41902772763559 0
-8.129278029683864 25.18044141902154 0
-0.8335119610462112 22.29425101853231 0
-2.076875874639221 29.81553449087629 0
5.298052763498423 27.12945277793377 0
6.459615372574005 19.40139030507835 0
12.60657278606329 24.27550212920997 0
13.75706729270448 16.51946150058041 0
19.81995862333791 21.38285035625059 0
21.03938427932258 13.6329044934085 0
14.90382988335526 8.759592276150592 0
22.19932821717048 5.873659369725496 0
28.20722188347182 10.54706759435618 0
29.39140400048842 2.942056903576211 0
23.33236195773611 -1.895049175449355 0
30.69027557911934 -4.9281287515703 0
4.165516451694245 34.93088840977102 0
-14.96764910027163 27.78639060982561 0
-31.34538898495062 -1.881309321630149 0
-32.51386721801592 5.809766437272139 0
-30.0057099267087 -9.761756980950253 0
-23.05677849011256 -12.71611243012976 0
18.37237780086863 29.54153246086134 0
-28.01356448256892 -17.48602899519076 0
-21.97799416773655 -20.49088498433906 0
36.16705680128767 8.298283289817901 0
25.64684257244716 -17.4107383969573 0
32.65225636066769 -20.42533206140377 0
31.89032402301266 -12.67080392896081 0
37.81003352039572 -7.980123159680895 0
6.027766886520466 -24.23597804672239 0
-1.244100902542505 -21.38173510590199 0
-0.1752053288979148 -29.04178916551762 0
-7.400749956714273 -26.24584899711252 0
-6.121880584777466 -33.58158670729453 0
-13.34732542602133 -30.75510093662547 0
6.680444231387907 -31.39341639090663 0
-8.537976607930792 -18.49839903902616 0
24.50409736416496 -9.661704868160314 0
-2.388547427670366 -13.62525559472497 0
17.19884845473626 -6.763156687393472 0
-15.8196312489874 -15.61313100858264 0
-14.65250593155012 -23.30932001068714 0
-20.68668962793068 -27.82886895518072 0
8.758385474352496 3.885321127041806 0
-26.46689156771841 10.48768889585403 0
-27.44588617468543 18.13958291971207 0
-21.16130835250934 23.04705888151139 0
0.3144121224369943 14.5317318060421 0
7.60941768567405 11.64482644218949 0
-9.049562266921658 32.67864472488231 0
11.07948524110342 32.39654408303866 0
23.16548444171774 35.65928915310208 0
27.05047844522275 17.83804670381688 0
-16.96554275246906 -7.851596771626032 0
-5.83262550514575 9.657443645266536 0
16.04986923061627 0.9975579684447766 0
36.43773054400761 -0.05475695124024067 0
26.38453397185089 26.66596804264654 0
-33.43183372451985 13.27748458866863 0
-40.84731199248735 9.133926070912585 0
-28.42326853785227 25.51655450496798 0
-35.45590659641594 22.02961752576847 0
33.39490948613775 21.10868046081508 0
0.8337487963679444 -36.15429067094484 0
-4.983031554271562 -41.60980240068226 0
-36.77722010559616 -6.623852411917115 0
-26.72693473412727 -32.59776509498362 0
43.46365450349832 -3.849643234248298 0
21.88904901433344 -37.14139085062948 0
-37.63792864068049 -22.35313787582874 0
2.322533753521427 42.52010327288968 0
9.592295592708107 40.8989742678398 0
-23.06200619704277 37.63377359064931 0
10.68750151010206 -42.15943049243778 0
-42.91839745666918 -10.30379563183578 0
43.15934723189115 10.28471078253957 0
-10.30594284463104 40.83617345885241 0
-22.92620051779794 -38.37991676565778 0
-38.30436843487698 1.115332197091023 0
-21.59747594180954 30.77213034627749 0
-26.71120280227962 -25.15565626920247 0
13.85405990045797 -35.2864206353157 0
-3.102812359758847 37.55292340597249 0
-33.65715559420243 29.09317469275447 0
29.46778037106155 33.22915763117433 0
33.13058537636366 14.72773596625112 0
-44.54400663718166 3.232286171485314 0
-11.17541540712532 -43.10927780838062 0
38.29173770434177 -23.42366163757819 0
7.08670111634566 -37.58239113377038 0
-15.78532309953287 34.83627120705714 0
-35.54628240986713 -15.16069424897304 0
-11.4686174349247 -37.17580868946073 0
43.90490257161162 -10.43899514451113 0
-18.74891033311747 -33.9225701401505 0
38.748822800101 23.77188240025295 0
-32.20544115079942 -21.64317611680232 0
$EndNodes
$Elements
3 336 1 336
1 2 1 10
1 2 14 
2 14 15 
3 15 16 
4 16 17 
5 17 18 
6 18 19 
7 19 20 
8 20 21 
9 21 22 
10 22 3 
1 4 1 10
11 4 32 
12 32 33 
13 33 34 
14 34 35 
15 35 36 
16 36 37 
17 37 38 
18 38 39 
19 39 40 
20 40 1 
2 6 2 316
21 104 41 133 
22 19 20 144 
23 41 104 134 
24 21 22 142 
25 98 153 165 
26 153 56 165 
27 12 13 154 
28 132 159 173 
29 159 48 173 
30 44 21 142 
31 151 59 164 
32 20 44 144 
33 159 132 165 
34 46 151 164 
35 4 53 147 
36 125 149 177 
37 19 144 166 
38 31 4 147 
39 149 160 177 
40 140 135 145 
41 51 140 145 
42 134 104 140 
43 41 12 154 
44 134 140 167 
45 149 125 163 
46 148 157 174 
47 97 111 139 
48 156 164 172 
49 156 46 164 
50 110 43 111 
51 45 107 158 
52 157 47 174 
53 97 110 111 
54 13 153 154 
55 133 41 154 
56 142 22 169 
57 107 45 168 
58 10 11 134 
59 11 41 134 
60 109 43 110 
61 139 111 150 
62 174 152 179 
63 143 129 162 
64 47 152 174 
65 56 159 165 
66 148 100 161 
67 153 98 154 
68 55 107 139 
69 58 57 109 
70 141 128 144 
71 52 143 162 
72 110 97 120 
73 108 110 120 
74 108 58 109 
75 60 58 108 
76 108 109 110 
77 117 124 125 
78 117 115 124 
79 74 119 121 
80 103 123 136 
81 119 113 121 
82 115 119 124 
83 119 74 123 
84 112 65 113 
85 113 65 121 
86 112 114 118 
87 103 106 123 
88 123 74 136 
89 62 65 112 
90 120 96 122 
91 97 96 120 
92 112 113 114 
93 119 123 124 
94 63 120 122 
95 67 122 138 
96 114 113 115 
97 122 96 138 
98 67 64 122 
99 114 115 116 
100 115 113 119 
101 69 74 121 
102 116 115 117 
103 66 69 121 
104 126 67 138 
105 123 106 124 
106 68 67 126 
107 126 92 131 
108 124 106 125 
109 71 126 131 
110 71 130 137 
111 35 36 49 
112 26 27 50 
113 17 18 52 
114 8 9 51 
115 92 126 138 
116 4 32 53 
117 130 71 131 
118 3 23 54 
119 1 5 55 
120 2 14 56 
121 70 71 137 
122 33 34 46 
123 24 25 47 
124 6 7 45 
125 15 16 48 
126 101 80 127 
127 75 81 136 
128 103 105 106 
129 100 80 101 
130 95 96 97 
131 80 76 127 
132 72 75 136 
133 81 103 136 
134 76 78 127 
135 95 93 96 
136 75 73 76 
137 127 78 128 
138 75 76 80 
139 94 93 95 
140 83 82 84 
141 91 92 93 
142 103 102 105 
143 83 84 85 
144 85 84 86 
145 86 84 87 
146 84 82 130 
147 86 87 88 
148 85 86 98 
149 87 84 130 
150 130 82 137 
151 92 89 131 
152 87 130 131 
153 91 89 92 
154 88 104 133 
155 94 95 107 
156 89 87 131 
157 90 89 91 
158 72 73 75 
159 88 90 104 
160 83 85 132 
161 86 88 133 
162 98 86 133 
163 88 87 89 
164 74 72 136 
165 76 77 78 
166 88 89 90 
167 69 72 74 
168 38 39 43 
169 90 91 135 
170 79 82 83 
171 81 80 100 
172 29 30 42 
173 20 21 44 
174 76 73 77 
175 72 70 73 
176 91 93 94 
177 81 102 103 
178 93 92 138 
179 128 78 129 
180 73 70 137 
181 71 68 126 
182 82 77 137 
183 75 80 81 
184 91 94 135 
185 79 83 99 
186 99 83 132 
187 79 77 82 
188 77 73 137 
189 79 99 129 
190 81 100 102 
191 78 77 79 
192 78 79 129 
193 96 93 138 
194 70 68 71 
195 69 70 72 
196 11 12 41 
197 69 68 70 
198 66 68 69 
199 66 67 68 
200 65 66 121 
201 66 64 67 
202 65 64 66 
203 63 108 120 
204 62 64 65 
205 64 63 122 
206 61 112 118 
207 63 60 108 
208 62 63 64 
209 61 62 112 
210 62 60 63 
211 61 60 62 
212 59 60 61 
213 53 146 147 
214 59 58 60 
215 54 148 161 
216 107 55 158 
217 98 133 154 
218 49 58 59 
219 44 141 144 
220 107 95 139 
221 90 135 140 
222 155 162 173 
223 55 139 150 
224 127 128 141 
225 118 114 146 
226 141 44 142 
227 50 149 163 
228 49 59 151 
229 100 101 161 
230 48 155 173 
231 95 97 139 
232 101 141 142 
233 104 90 140 
234 106 105 163 
235 59 61 164 
236 129 99 162 
237 85 98 165 
238 146 116 147 
239 101 127 141 
240 128 129 143 
241 114 116 146 
242 49 57 58 
243 109 57 171 
244 31 147 170 
245 140 51 167 
246 135 94 168 
247 102 100 148 
248 111 43 176 
249 49 36 57 
250 50 27 149 
251 1 55 150 
252 2 56 153 
253 46 34 151 
254 47 25 152 
255 36 37 57 
256 27 28 149 
257 33 46 156 
258 24 47 157 
259 35 49 151 
260 6 45 158 
261 26 50 152 
262 40 1 150 
263 48 16 155 
264 53 32 156 
265 54 23 157 
266 55 5 158 
267 17 52 155 
268 13 2 153 
269 15 48 159 
270 32 33 156 
271 23 24 157 
272 28 29 160 
273 5 6 158 
274 34 35 151 
275 14 15 159 
276 25 26 152 
277 16 17 155 
278 56 14 159 
279 29 42 160 
280 128 143 144 
281 42 175 177 
282 105 174 179 
283 175 117 177 
284 52 18 166 
285 144 143 166 
286 10 134 167 
287 9 10 167 
288 147 116 175 
289 101 142 161 
290 3 54 169 
291 43 109 171 
292 30 31 170 
293 38 43 171 
294 145 135 168 
295 43 39 176 
296 45 7 178 
297 8 51 178 
298 102 148 174 
299 94 107 168 
300 125 106 163 
301 61 118 164 
302 132 85 165 
303 18 19 166 
304 164 118 172 
305 51 9 167 
306 22 3 169 
307 148 54 157 
308 118 146 172 
309 42 30 170 
310 37 38 171 
311 143 52 166 
312 149 28 160 
313 116 117 175 
314 163 105 179 
315 51 145 178 
316 145 45 178 
317 99 132 173 
318 105 102 174 
319 39 40 176 
320 117 125 177 
321 54 161 169 
322 7 8 178 
323 150 111 176 
324 155 52 162 
325 170 147 175 
326 161 142 169 
327 57 37 171 
328 45 145 168 
329 40 150 176 
330 146 53 172 
331 162 99 173 
332 160 42 177 
333 53 156 172 
334 152 50 179 
335 50 163 179 
336 42 170 175 
$EndElements
