$MeshFormat
4.1 0 8
$EndMeshFormat
$Entities
5 4 1 0
1 50 0 0 0 
2 0 50 0 0 
3 -50 0 0 0 
4 0 -50 0 0 
5 0 0 0 0 
1 3.552713678800501e-15 0 0 50 50 0 0 2 1 -2 
2 -50 3.552713678800501e-15 0 0 50 0 1 8 2 2 -3 
3 -50 -50 0 -3.552713678800501e-15 0 0 0 2 3 -4 
4 0 -50 0 50 -3.552713678800501e-15 0 1 9 2 4 -1 
6 -50 -50 0 50 50 0 1 7 4 1 2 3 4 
$EndEntities
$Nodes
9 41 1 41
0 1 0 1
1
50 0 0
0 2 0 1
2
0 50 0
0 3 0 1
3
-50 0 0
0 4 0 1
4
0 -50 0
1 1 0 3
5
6
7
46.19397660518391 19.1341716674572 0
35.35533897501899 35.35533914363577 0
19.13417155869061 46.19397665023651 0
1 2 0 3
8
9
10
-19.1341716674572 46.19397660518391 0
-35.35533914363577 35.35533897501899 0
-46.19397665023651 19.13417155869061 0
1 3 0 3
11
12
13
-46.19397660518391 -19.1341716674572 0
-35.35533897501899 -35.35533914363577 0
-19.13417155869061 -46.19397665023651 0
1 4 0 3
14
15
16
19.1341716674572 -46.19397660518391 0
35.35533914363577 -35.35533897501899 0
46.19397665023651 -19.13417155869061 0
2 6 0 25
17
18
19
20
21
22
23
24
25
26
27
28
29
30
31
32
33
34
35
36
37
38
39
40
41
27.47103835250326 -17.36869112827734 0
-26.72671483878517 17.85821984601945 0
-19.02160910455788 -28.28097429245225 0
18.7601134953334 23.44046076898577 0
32.58259712959028 7.840870579651215 0
5.967831134936788 -32.70044007230112 0
-34.38057868818052 -6.899142460893366 0
-6.270972896174147 31.52630960723911 0
21.06520667902738 -31.52630958985378 0
9.171406797097637 -13.8399475184708 0
-6.737253176205166 -21.3350806672645 0
-8.48656413277666 -3.308651073586607 0
5.634535372130639 8.558702020042617 0
-10.5574520875694 15.47893472631701 0
18.92409446133894 -0.06102070439135408 0
-31.05791304483637 -20.6805077599578 0
-21.06520667902738 31.52630958985378 0
33.22300655128164 21.44271053993248 0
35.03434131873379 -5.744602562341616 0
-7.397116848374514 -37.1878177850049 0
-37.1878177850049 7.397116848374514 0
7.271307158979226 35.43813266903409 0
-21.97409938783478 4.370920129961133 0
2.967506208539942 22.88850795832371 0
-20.27633625573189 -12.6889060206989 0
$EndNodes
$Elements
3 72 1 72
1 2 1 4
1 2 8 
2 8 9 
3 9 10 
4 10 3 
1 4 1 4
5 4 14 
6 14 15 
7 15 16 
8 16 1 
2 6 2 64
9 21 20 31 
10 20 29 31 
11 20 21 34 
12 25 17 26 
13 22 25 26 
14 4 14 22 
15 3 11 23 
16 1 5 21 
17 2 8 24 
18 15 16 17 
19 12 13 19 
20 9 10 18 
21 6 7 20 
22 29 20 40 
23 28 26 29 
24 26 17 31 
25 31 17 35 
26 30 24 33 
27 18 30 33 
28 22 26 27 
29 21 31 35 
30 28 29 30 
31 27 26 28 
32 14 15 25 
33 11 12 32 
34 8 9 33 
35 5 6 34 
36 4 22 36 
37 1 21 35 
38 3 23 37 
39 2 24 38 
40 22 14 25 
41 17 16 35 
42 23 11 32 
43 19 13 36 
44 21 5 34 
45 24 8 33 
46 18 10 37 
47 20 7 38 
48 16 1 35 
49 13 4 36 
50 10 3 37 
51 7 2 38 
52 15 17 25 
53 12 19 32 
54 9 18 33 
55 6 20 34 
56 29 26 31 
57 27 28 41 
58 24 30 40 
59 30 29 40 
60 22 27 36 
61 27 19 36 
62 28 39 41 
63 39 23 41 
64 19 27 41 
65 30 18 39 
66 28 30 39 
67 37 23 39 
68 18 37 39 
69 38 24 40 
70 20 38 40 
71 23 32 41 
72 32 19 41 
$EndElements
