$MeshFormat
4.1 0 8
$EndMeshFormat
$PhysicalNames
3
1 9 "XBlocked"
1 10 "YBlocked"
1 11 "Traction"
$EndPhysicalNames
$Entities
4 4 1 0
1 0 0 0 0 
2 500 0 0 0 
3 500 100 0 0 
4 0 100 0 0 
1 0 0 0 500 0 0 0 2 1 -2 
2 500 0 0 500 100 0 0 2 2 -3 
3 0 100 0 500 100 0 1 11 2 3 -4 
4 0 0 0 0 100 0 2 9 10 2 4 -1 
5 0 0 0 500 100 0 1 8 4 3 4 1 2 
$EndEntities
$Nodes
9 96 1 96
0 1 0 1
1
0 0 0
0 2 0 1
2
500 0 0
0 3 0 1
3
500 100 0
0 4 0 1
4
0 100 0
1 1 0 16
5
6
7
8
9
10
11
12
13
14
15
16
17
18
19
20
29.4117647058617 0 0
58.82352941175036 0 0
88.23529411757319 0 0
117.6470588233827 0 0
147.0588235292494 0 0
176.4705882351425 0 0
205.8823529410356 0 0
235.2941176469287 0 0
264.7058823528552 0 0
294.1176470587483 0 0
323.5294117646413 0 0
352.9411764705345 0 0
382.3529411764276 0 0
411.7647058823207 0 0
441.1764705882138 0 0
470.5882352941069 0 0
1 2 0 3
21
22
23
500 24.99999999988817 0
500 49.99999999982371 0
500 74.99999999986329 0
1 3 0 16
24
25
26
27
28
29
30
31
32
33
34
35
36
37
38
39
470.5882352941196 100 0
441.1764705882392 100 0
411.7647058823588 100 0
382.3529411764784 100 0
352.9411764705981 100 0
323.5294117647177 100 0
294.1176470588372 100 0
264.7058823529568 100 0
235.2941176470431 100 0
205.8823529411627 100 0
176.4705882352823 100 0
147.058823529402 100 0
117.6470588235215 100 0
88.23529411764116 100 0
58.82352941176077 100 0
29.41176470588039 100 0
1 4 0 3
40
41
42
0 75.00000000017764 0
0 50.00000000025812 0
0 25.00000000017761 0
2 5 0 54
43
44
45
46
47
48
49
50
51
52
53
54
55
56
57
58
59
60
61
62
63
64
65
66
67
68
69
70
71
72
73
74
75
76
77
78
79
80
81
82
83
84
85
86
87
88
89
90
91
92
93
94
95
96
73.83484014614226 24.98077264351568 0
132.4864387390951 25.39426055158572 0
426.1668973598487 75.01822374084709 0
367.6470588235382 74.52866459457709 0
249.9999999999999 74.52866459457701 0
308.8235294117774 74.52866459457701 0
191.1764705882225 74.52866459457707 0
42.74511890095683 74.23759694319118 0
457.2564134590557 25.76155913777271 0
103.0365318725418 74.92252174845436 0
397.0588235293741 25.47133540543397 0
338.2352941175878 25.47133540543397 0
279.4117647058017 25.47133540543394 0
220.5882352939822 25.47133540543397 0
479.23704861725 61.78686892509737 0
20.76296906007396 38.21313107495587 0
73.4518381036259 74.64942085819149 0
426.593425110231 25.33223467984432 0
249.9999999998741 25.47133540543315 0
161.7869554759762 25.30135013259423 0
147.3517765142738 50.27304691579855 0
191.1774358800319 25.38215846237392 0
279.4117647058836 74.52866459456546 0
220.5882352941162 74.52866459456558 0
367.6470588234797 25.47133540543347 0
308.8235294116935 25.47133540543327 0
103.1478283573034 25.14254248049905 0
397.0588235294184 74.52866459457758 0
338.2352941176579 74.52866459457744 0
161.8135313797879 75.04550781927784 0
117.768468462874 50.20064551230968 0
439.6176914190247 50.28209685826039 0
60.39212084788173 49.71351515015482 0
411.6968027621339 50.02290450750641 0
88.4995635324444 49.95350218964644 0
382.3529411764787 50.00000000001882 0
352.9411764705869 50.00000000001688 0
323.5294117646906 50.00000000001147 0
264.7058823529172 50.00000000001678 0
294.117647058794 50.00000000000632 0
205.8823529410257 49.99999999995966 0
235.2941176469859 49.99999999999768 0
132.4460317637335 75.07362033264006 0
176.4705882350854 49.99983402773148 0
21.6506350944992 62.50000000021788 0
478.3493649054654 37.49999999985594 0
42.88602658427639 25.75327212313277 0
457.1156410606105 74.24595764729183 0
481.2388027317256 17.65231182750336 0
18.76150374026728 82.34751938871734 0
18.61215207004241 17.79328063965325 0
481.3881849943961 82.2065653144505 0
37.68737409753762 50.08350305833051 0
462.3152318922812 49.91529651365565 0
$EndNodes
$Elements
3 169 1 169
1 3 1 17
1 3 24 
2 24 25 
3 25 26 
4 26 27 
5 27 28 
6 28 29 
7 29 30 
8 30 31 
9 31 32 
10 32 33 
11 33 34 
12 34 35 
13 35 36 
14 36 37 
15 37 38 
16 38 39 
17 39 4 
1 4 1 4
18 4 40 
19 40 41 
20 41 42 
21 42 1 
2 5 2 148
22 69 73 77 
23 72 35 85 
24 38 50 59 
25 38 39 50 
26 19 20 51 
27 53 18 60 
28 19 51 60 
29 52 37 59 
30 37 38 59 
31 18 19 60 
32 11 56 64 
33 13 55 61 
34 12 13 61 
35 31 32 47 
36 8 9 44 
37 48 30 65 
38 33 49 66 
39 10 11 64 
40 30 31 65 
41 32 33 66 
42 31 47 65 
43 36 37 52 
44 47 32 66 
45 17 53 67 
46 15 54 68 
47 56 12 61 
48 54 16 67 
49 55 14 68 
50 17 18 53 
51 11 12 56 
52 15 16 54 
53 13 14 55 
54 16 17 67 
55 14 15 68 
56 33 34 49 
57 25 26 45 
58 29 30 48 
59 27 28 46 
60 28 29 71 
61 26 27 70 
62 6 7 43 
63 62 10 64 
64 9 10 62 
65 45 26 70 
66 29 48 71 
67 46 28 71 
68 27 46 70 
69 8 44 69 
70 44 62 63 
71 7 8 69 
72 43 7 69 
73 44 9 62 
74 73 52 77 
75 63 72 85 
76 5 6 89 
77 24 25 90 
78 34 35 72 
79 69 44 73 
80 36 52 85 
81 63 62 86 
82 59 50 75 
83 60 51 74 
84 59 75 77 
85 52 73 85 
86 72 63 86 
87 49 34 72 
88 44 63 73 
89 53 60 76 
90 76 70 78 
91 52 59 77 
92 75 43 77 
93 60 74 76 
94 53 76 78 
95 45 70 76 
96 43 69 77 
97 74 45 76 
98 83 49 86 
99 66 83 84 
100 83 56 84 
101 61 55 81 
102 66 49 83 
103 81 55 82 
104 56 61 84 
105 55 68 82 
106 68 54 80 
107 54 67 79 
108 67 53 78 
109 68 80 82 
110 54 79 80 
111 67 78 79 
112 61 81 84 
113 65 81 82 
114 64 56 83 
115 70 46 78 
116 78 46 79 
117 46 71 79 
118 48 65 82 
119 71 48 80 
120 79 71 80 
121 65 47 81 
122 80 48 82 
123 47 66 84 
124 81 47 84 
125 64 83 86 
126 35 36 85 
127 62 64 86 
128 49 72 86 
129 73 63 85 
130 43 75 89 
131 45 74 90 
132 40 41 87 
133 21 22 88 
134 6 43 89 
135 25 45 90 
136 41 42 58 
137 22 23 57 
138 39 4 92 
139 20 2 91 
140 3 24 94 
141 1 5 93 
142 41 58 87 
143 22 57 88 
144 24 90 94 
145 5 89 93 
146 90 57 94 
147 89 58 93 
148 4 40 92 
149 2 21 91 
150 42 1 93 
151 23 3 94 
152 50 39 92 
153 51 20 91 
154 58 89 95 
155 57 90 96 
156 89 75 95 
157 90 74 96 
158 75 50 95 
159 74 51 96 
160 87 50 92 
161 88 51 91 
162 50 87 95 
163 51 88 96 
164 40 87 92 
165 21 88 91 
166 58 42 93 
167 57 23 94 
168 95 58 87 
169 88 57 96 
$EndElements
