$MeshFormat
4.1 0 8
$EndMeshFormat
$Entities
9 12 4 0
1 0 0 0 0 
2 250 0 0 0 
3 250 50 0 0 
4 0 50 0 0 
5 250 100 0 0 
6 0 100 0 0 
7 500 0 0 0 
8 500 50 0 0 
9 500 100 0 0 
1 0 0 0 250 0 0 0 2 1 -2 
2 250 0 0 250 50 0 0 2 2 -3 
3 0 50 0 250 50 0 0 2 3 -4 
4 0 0 0 0 50 0 0 2 4 -1 
5 250 50 0 250 100 0 0 2 3 -5 
6 0 100 0 250 100 0 0 2 5 -6 
7 0 50 0 0 100 0 0 2 6 -4 
8 250 0 0 500 0 0 0 2 2 -7 
9 500 0 0 500 50 0 0 2 7 -8 
10 250 50 0 500 50 0 0 2 8 -3 
11 500 50 0 500 100 0 0 2 8 -9 
12 250 100 0 500 100 0 0 2 9 -5 
16 0 0 0 250 50 0 0 4 3 4 1 2 
17 0 50 0 250 100 0 0 4 6 7 -3 5 
18 250 0 0 500 50 0 0 4 10 -2 8 9 
19 250 50 0 500 100 0 0 4 12 -5 -10 11 
$EndEntities
$Nodes
25 102 1 102
0 1 0 1
1
0 0 0
0 2 0 1
2
250 0 0
0 3 0 1
3
250 50 0
0 4 0 1
4
0 50 0
0 5 0 1
5
250 100 0
0 6 0 1
6
0 100 0
0 7 0 1
7
500 0 0
0 8 0 1
8
500 50 0
0 9 0 1
9
500 100 0
1 1 0 8
10
11
12
13
14
15
16
17
27.77777777777005 0 0
55.55555555549032 0 0
83.33333333325574 0 0
111.1111111110437 0 0
138.8888888888483 0 0
166.6666666666362 0 0
194.4444444444242 0 0
222.2222222222121 0 0
1 2 0 1
18
250 24.99999999991185 0
1 3 0 8
19
20
21
22
23
24
25
26
222.2222222222241 50 0
194.4444444444482 50 0
166.6666666666722 50 0
138.8888888888963 50 0
111.1111111111037 50 0
83.33333333332777 50 0
55.55555555555185 50 0
27.77777777777592 50 0
1 4 0 1
27
0 25.00000000012906 0
1 5 0 1
28
250 74.99999999974192 0
1 6 0 8
29
30
31
32
33
34
35
36
222.2222222222241 100 0
194.4444444444482 100 0
166.6666666666722 100 0
138.8888888888963 100 0
111.1111111111037 100 0
83.33333333332777 100 0
55.55555555555185 100 0
27.77777777777592 100 0
1 7 0 1
37
0 75.00000000015959 0
1 8 0 8
38
39
40
41
42
43
44
45
277.7777777777778 0 0
305.5555555555555 0 0
333.3333333333333 0 0
361.1111111111111 0 0
388.8888888888889 0 0
416.6666666666666 0 0
444.4444444444445 0 0
472.2222222222222 0 0
1 9 0 1
46
500 24.99999999991185 0
1 10 0 8
47
48
49
50
51
52
53
54
472.2222222222222 50 0
444.4444444444445 50 0
416.6666666666667 50 0
388.8888888888889 50 0
361.1111111111111 50 0
333.3333333333334 50 0
305.5555555555555 50 0
277.7777777777778 50 0
1 11 0 1
55
500 74.99999999974192 0
1 12 0 8
56
57
58
59
60
61
62
63
472.2222222222222 100 0
444.4444444444445 100 0
416.6666666666667 100 0
388.8888888888889 100 0
361.1111111111111 100 0
333.3333333333334 100 0
305.5555555555555 100 0
277.7777777777778 100 0
2 16 0 9
64
65
66
67
68
69
70
71
72
43.67888801183639 24.9163636568891 0
206.3205927552413 25.08380692765003 0
124.9903081312389 25.19224315079864 0
97.40823018361834 24.96262049030257 0
179.7053612381898 24.65883941442718 0
70.23088540097572 25.02062499651139 0
152.6069016301558 24.88489366588157 0
231.802285547627 24.55167147981355 0
18.19760627164831 25.4483791726236 0
2 17 0 10
73
74
75
76
77
78
79
80
81
82
125.000000225133 74.80501420374155 0
180.5555552012241 74.80501421082363 0
69.46143614752012 74.81662439497249 0
152.7777776907834 74.9287557971377 0
97.22471141968316 74.93270990956226 0
206.2384965042891 75.13469084766894 0
41.66666666666386 75.94373878376722 0
20.94945391120353 70.34507224280772 0
231.802465702721 74.56521164788265 0
13.76936040010043 87.49999963922022 0
2 18 0 10
83
84
85
86
87
88
89
90
91
92
375.016990997662 24.81662446198021 0
430.5555536288539 24.80501499112171 0
291.6666666666666 25.94373872302943 0
347.4250375663886 25.06341978788791 0
402.7802671009981 24.93271007630649 0
456.2384931002656 25.13469333506236 0
319.7340571313287 24.94628758378504 0
270.9494539118213 20.34507213855477 0
481.8024661469493 24.56521314291912 0
263.7693602134589 37.49999841474791 0
2 19 0 10
93
94
95
96
97
98
99
100
101
102
319.4614356802711 74.81662450797651 0
375.0000003831826 74.80501407105173 0
430.5555537461173 74.80501475724702 0
347.224711260501 74.93271017087332 0
291.6666666666666 75.94373878376567 0
456.2384933126139 75.13469319499957 0
402.7777781124748 74.92875572225545 0
270.9494538399629 70.34507228094758 0
481.8024654479251 74.56521298142499 0
263.7693607497861 87.5000014645432 0
$EndNodes
$Elements
25 233 1 233
0 1 15 1
1 1 
0 2 15 1
2 2 
0 3 15 1
3 3 
0 4 15 1
4 4 
0 5 15 1
5 5 
0 6 15 1
6 6 
0 7 15 1
7 7 
0 8 15 1
8 8 
0 9 15 1
9 9 
1 1 1 9
10 1 10 
11 10 11 
12 11 12 
13 12 13 
14 13 14 
15 14 15 
16 15 16 
17 16 17 
18 17 2 
1 2 1 2
19 2 18 
20 18 3 
1 3 1 9
21 3 19 
22 19 20 
23 20 21 
24 21 22 
25 22 23 
26 23 24 
27 24 25 
28 25 26 
29 26 4 
1 4 1 2
30 4 27 
31 27 1 
1 5 1 2
32 3 28 
33 28 5 
1 6 1 9
34 5 29 
35 29 30 
36 30 31 
37 31 32 
38 32 33 
39 33 34 
40 34 35 
41 35 36 
42 36 6 
1 7 1 2
43 6 37 
44 37 4 
1 8 1 9
45 2 38 
46 38 39 
47 39 40 
48 40 41 
49 41 42 
50 42 43 
51 43 44 
52 44 45 
53 45 7 
1 9 1 2
54 7 46 
55 46 8 
1 10 1 9
56 8 47 
57 47 48 
58 48 49 
59 49 50 
60 50 51 
61 51 52 
62 52 53 
63 53 54 
64 54 3 
1 11 1 2
65 8 55 
66 55 9 
1 12 1 9
67 9 56 
68 56 57 
69 57 58 
70 58 59 
71 59 60 
72 60 61 
73 61 62 
74 62 63 
75 63 5 
2 16 2 38
76 19 71 3 
77 10 72 1 
78 14 66 13 
79 17 65 16 
80 26 64 25 
81 21 70 68 
82 22 70 21 
83 12 69 11 
84 24 67 23 
85 21 68 20 
86 65 68 16 
87 66 67 13 
88 64 69 25 
89 14 70 66 
90 67 69 12 
91 24 69 67 
92 20 68 65 
93 23 67 66 
94 11 69 64 
95 66 70 22 
96 18 71 2 
97 27 72 4 
98 2 71 17 
99 4 72 26 
100 68 70 15 
101 16 68 15 
102 13 67 12 
103 25 69 24 
104 15 70 14 
105 11 64 10 
106 23 66 22 
107 20 65 19 
108 64 72 10 
109 65 71 19 
110 17 71 65 
111 26 72 64 
112 1 72 27 
113 3 71 18 
2 17 2 40
114 29 81 5 
115 33 73 32 
116 31 74 30 
117 25 79 26 
118 35 75 34 
119 23 77 24 
120 19 78 20 
121 21 76 22 
122 73 76 32 
123 75 77 34 
124 74 78 30 
125 31 76 74 
126 33 77 73 
127 75 79 25 
128 35 79 75 
129 24 77 75 
130 22 76 73 
131 20 78 74 
132 73 77 23 
133 74 76 21 
134 4 80 37 
135 28 81 3 
136 26 80 4 
137 3 81 19 
138 32 76 31 
139 30 78 29 
140 34 77 33 
141 22 73 23 
142 20 74 21 
143 24 75 25 
144 36 79 35 
145 78 81 29 
146 79 82 80 
147 36 82 79 
148 79 80 26 
149 19 81 78 
150 6 82 36 
151 37 82 6 
152 80 82 37 
153 5 81 28 
2 18 2 40
154 47 91 8 
155 51 83 50 
156 41 86 40 
157 49 84 48 
158 39 85 38 
159 45 88 44 
160 43 87 42 
161 53 89 52 
162 49 87 84 
163 39 89 85 
164 86 89 40 
165 83 87 50 
166 84 88 48 
167 51 86 83 
168 83 86 41 
169 84 87 43 
170 85 89 53 
171 52 89 86 
172 42 87 83 
173 44 88 84 
174 2 90 18 
175 46 91 7 
176 38 90 2 
177 7 91 45 
178 40 89 39 
179 50 87 49 
180 48 88 47 
181 54 85 53 
182 44 84 43 
183 52 86 51 
184 42 83 41 
185 88 91 47 
186 85 92 90 
187 54 92 85 
188 85 90 38 
189 45 91 88 
190 3 92 54 
191 18 92 3 
192 90 92 18 
193 8 91 46 
2 19 2 40
194 56 101 9 
195 62 93 61 
196 53 97 54 
197 60 94 59 
198 58 95 57 
199 47 98 48 
200 49 99 50 
201 51 96 52 
202 93 96 61 
203 94 99 59 
204 58 99 95 
205 60 96 94 
206 95 98 57 
207 93 97 53 
208 62 97 93 
209 52 96 93 
210 50 99 94 
211 95 99 49 
212 94 96 51 
213 48 98 95 
214 3 100 28 
215 55 101 8 
216 54 100 3 
217 8 101 47 
218 61 96 60 
219 59 99 58 
220 57 98 56 
221 52 93 53 
222 50 94 51 
223 48 95 49 
224 63 97 62 
225 98 101 56 
226 97 102 100 
227 63 102 97 
228 97 100 54 
229 47 101 98 
230 5 102 63 
231 28 102 5 
232 100 102 28 
233 9 101 55 
$EndElements
